<svg width="33" height="34" viewBox="0 0 33 34" fill="none" xmlns="http://www.w3.org/2000/svg">
<path d="M17.6341 9.85263H14.9248V15.3347H9.50632V18.0758H14.9248V23.5579H17.6341V18.0758H23.0526V15.3347H17.6341V9.85263ZM16.2795 3C8.80191 3 2.73315 9.13996 2.73315 16.7053C2.73315 24.2706 8.80191 30.4105 16.2795 30.4105C23.7571 30.4105 29.8258 24.2706 29.8258 16.7053C29.8258 9.13996 23.7571 3 16.2795 3ZM16.2795 27.6695C10.3056 27.6695 5.44242 22.7493 5.44242 16.7053C5.44242 10.6612 10.3056 5.74105 16.2795 5.74105C22.2534 5.74105 27.1165 10.6612 27.1165 16.7053C27.1165 22.7493 22.2534 27.6695 16.2795 27.6695Z" fill="#FAFAFA"/>
</svg>
