<svg width="21" height="21" viewBox="0 0 21 21" fill="none" xmlns="http://www.w3.org/2000/svg">
<path d="M11.8613 5.78253H9.88111V9.74292H5.92071V11.7231H9.88111V15.6835H11.8613V11.7231H15.8217V9.74292H11.8613V5.78253ZM10.8712 0.832031C5.40586 0.832031 0.970215 5.26767 0.970215 10.733C0.970215 16.1984 5.40586 20.634 10.8712 20.634C16.3366 20.634 20.7722 16.1984 20.7722 10.733C20.7722 5.26767 16.3366 0.832031 10.8712 0.832031ZM10.8712 18.6538C6.50487 18.6538 2.95041 15.0994 2.95041 10.733C2.95041 6.36669 6.50487 2.81223 10.8712 2.81223C15.2375 2.81223 18.792 6.36669 18.792 10.733C18.792 15.0994 15.2375 18.6538 10.8712 18.6538Z" fill="#120338"/>
</svg>
